# xmcd
#
# Track frame offsets: 
#        150
#        22964
#        48061
#        60280
#        79427
#        101728
#        127785
#        144003
#        170986
#        184880
#        211914
#
# Disc length: 3111 seconds
#
# Revision: 0
# Processed by: cddbd v1.5.2PL0 Copyright (c) Steve Scherf et al.
# Submitted via: ExactAudioCopy v0.95b4
#
DISCID=8b0c250b
DTITLE=Rory Gallagher - Deuce (Remastered)
DYEAR=2000
DGENRE=
TTITLE0=I'm not awake yet
TTITLE1=Used to be
TTITLE2=Don't know where I'm going
TTITLE3=Maybe I will
TTITLE4=Whole lot of People
TTITLE5=In your town
TTITLE6=Should've learnt my lessen
TTITLE7=There's a light
TTITLE8=Out of my mind
TTITLE9=Crest of a wave
TTITLE10=Persuasion
EXTD=
EXTT0=
EXTT1=
EXTT2=
EXTT3=
EXTT4=
EXTT5=
EXTT6=
EXTT7=
EXTT8=
EXTT9=
EXTT10=
PLAYORDER=
